<svg id="Warstwa_2" data-name="Warstwa 2" xmlns="http://www.w3.org/2000/svg" width="169.332" height="100.814" viewBox="0 0 169.332 100.814">
  <g id="Warstwa_1" data-name="Warstwa 1">
    <path id="Path_6279" data-name="Path 6279" d="M1374.438,394.437a1.676,1.676,0,0,1-1.295.367H1370.9v1.569h1.03v1.443h-3.778v-1.443h.96v-5.141h-.961V389.8h4.991a1.68,1.68,0,0,1,1.295.366c.342.344.514.745.514,2.118C1374.952,393.7,1374.78,394.093,1374.438,394.437Zm-2.016-1.018c.332,0,.447-.035.518-.092.1-.115.138-.275.138-1.007s-.035-.894-.138-1.008c-.069-.057-.184-.091-.518-.091H1370.9v2.2Z" transform="translate(-1279.564 -364.561)" fill="#13a538"/>
    <path id="Path_6280" data-name="Path 6280" d="M1472.54,397.319v-1.443h.777l1.972-6.034c.15-.447.309-.572.756-.572h1.295c.447,0,.607.126.756.572l1.969,6.034h.767v1.443h-3.618V395.9h.916l-.308-1.053h-2.416l-.3,1.053h.916v1.42Zm3.237-3.836h1.66l-.752-2.612h-.148Z" transform="translate(-1377.195 -364.065)" fill="#13a538"/>
    <path id="Path_6281" data-name="Path 6281" d="M1616.283,361.49h-.927v-1.431h3.5v1.431h-.938v6.584h-1.706a.661.661,0,0,1-.744-.481l-2.416-5.072h-.115v4.111h.962v1.443h-3.561v-1.443h.961V361.49h-.961v-1.431h2.862c.423,0,.55.1.744.48l2.222,4.694h.115Zm-2.6-2.152.971-1.338h2.336v.058l-1.981,1.339h-1.326Z" transform="translate(-1506.072 -334.82)" fill="#13a538"/>
    <path id="Path_6282" data-name="Path 6282" d="M1762.382,397.437a1.653,1.653,0,0,1-1.248.378h-2.885a1.811,1.811,0,0,1-1.34-.355c-.332-.333-.447-.825-.458-2.256h1.74c.023.79.058.971.126,1.042s.184.1.528.1h1.614c.332,0,.469-.023.549-.091.08-.092.1-.31.1-.79,0-.4-.011-.55-.115-.653-.068-.069-.229-.1-.549-.138l-2.347-.252a1.784,1.784,0,0,1-1.134-.412c-.309-.32-.412-.79-.412-1.878a2.611,2.611,0,0,1,.518-1.958,1.647,1.647,0,0,1,1.225-.377h2.679a1.781,1.781,0,0,1,1.328.343c.344.344.447.777.47,2.187h-1.729c-.023-.721-.058-.893-.137-.971s-.172-.092-.493-.092h-1.489c-.3,0-.412.012-.481.08s-.1.3-.1.733c0,.4.011.549.115.641.065.08.194.091.549.137l2.346.252a1.7,1.7,0,0,1,1.111.4c.309.309.435.8.435,1.89S1762.748,397.071,1762.382,397.437Z" transform="translate(-1642.722 -364.561)" fill="#13a538"/>
    <path id="Path_6283" data-name="Path 6283" d="M1878.285,396.372v1.443h-3.847v-1.443h1.03v-5.164h-1.306v1.522h-1.512V389.8h7.42v2.931h-1.511v-1.522h-1.305v5.164Z" transform="translate(-1751.398 -364.561)" fill="#13a538"/>
    <path id="Path_6284" data-name="Path 6284" d="M2004.466,390.043l1.156,5.679h.125l.825-4.809h-.917v-1.431h3.424v1.431h-.79l-1.283,6.034a.634.634,0,0,1-.744.583h-1.3c-.447,0-.653-.149-.733-.6l-1.055-5.07h-.115l-1.041,5.072c-.08.447-.287.6-.733.6h-1.305a.635.635,0,0,1-.744-.583l-1.283-6.034h-.79v-1.432h3.561v1.431h-.916l.824,4.809h.137l1.156-5.679c.08-.447.3-.583.733-.583h1.065C2004.168,389.459,2004.386,389.6,2004.466,390.043Z" transform="translate(-1867.855 -364.243)" fill="#13a538"/>
    <path id="Path_6285" data-name="Path 6285" d="M2198.593,389.8c.767,0,1.065.1,1.34.377.436.424.641,1.166.641,3.63s-.206,3.194-.641,3.629c-.274.275-.573.378-1.34.378h-2.7c-.756,0-1.065-.1-1.34-.378-.435-.435-.641-1.179-.641-3.629s.206-3.206.641-3.63c.274-.274.583-.377,1.34-.377Zm-2.633,6.423c.08.08.171.1.527.1h1.522c.344,0,.447-.023.515-.1.1-.092.15-.388.15-2.416s-.046-2.324-.15-2.427c-.065-.069-.171-.092-.515-.092h-1.522c-.356,0-.447.023-.527.092-.092.1-.149.388-.149,2.427S2195.868,396.131,2195.96,396.223Z" transform="translate(-2051.857 -364.561)" fill="#13a538"/>
    <path id="Path_6286" data-name="Path 6286" d="M2316.894,390.043l1.156,5.679h.123l.825-4.809h-.916v-1.431h3.423v1.431h-.79l-1.283,6.034a.634.634,0,0,1-.744.583h-1.3c-.447,0-.652-.149-.732-.6l-1.053-5.072h-.114l-1.042,5.072c-.08.447-.287.6-.733.6h-1.3a.635.635,0,0,1-.744-.583l-1.283-6.034h-.79v-1.431h3.561v1.431h-.916l.824,4.809h.137l1.156-5.679c.08-.447.3-.583.733-.583h1.065C2316.6,389.459,2316.813,389.6,2316.894,390.043Z" transform="translate(-2160.056 -364.243)" fill="#13a538"/>
    <path id="Path_6287" data-name="Path 6287" d="M2487.21,397.319v-1.443h.777l1.969-6.034c.149-.447.31-.572.756-.572h1.295c.447,0,.606.126.755.572l1.97,6.034h.766v1.443h-3.617V395.9h.916l-.309-1.053h-2.416l-.3,1.053h.919v1.42Zm3.237-3.836h1.661l-.754-2.612h-.15Z" transform="translate(-2326.166 -364.065)" fill="#13a538"/>
    <path id="Path_6288" data-name="Path 6288" d="M1372.463,602.331l1.156,5.679h.126l.823-4.809h-.915V601.77h3.423V603.2h-.791L1375,609.235a.634.634,0,0,1-.744.583h-1.3c-.447,0-.653-.149-.733-.6l-1.052-5.071h-.114l-1.043,5.072c-.08.446-.286.6-.732.6h-1.305a.636.636,0,0,1-.745-.583l-1.282-6.034h-.79v-1.431h3.561V603.2h-.917l.824,4.809h.137l1.157-5.679c.08-.446.3-.583.732-.583h1.064C1372.165,601.747,1372.384,601.885,1372.463,602.331Z" transform="translate(-1276.777 -562.787)" fill="#13a538"/>
    <path id="Path_6289" data-name="Path 6289" d="M1555.6,603.5h-.8V602.07h3.675v1.408h-.824l1.214,1.969h.069l1.295-1.969h-.837V602.07h3.516V603.5h-.813l-2.37,3.356v1.785h1.019v1.443h-3.824v-1.444h1.018v-1.748Z" transform="translate(-1454.128 -563.087)" fill="#13a538"/>
    <path id="Path_6290" data-name="Path 6290" d="M1692.387,576.429v-1.535h1.6v2.943h-6.7v-1.3l4.408-5.313h-2.622V572.7h-1.6v-2.874h6.549v1.3l-4.407,5.313Zm-2.622-8.839h1.8V569.1h-1.8Z" transform="translate(-1578.04 -530.839)" fill="#13a538"/>
    <path id="Path_6291" data-name="Path 6291" d="M1815.331,609.687a1.653,1.653,0,0,1-1.249.378H1811.2a1.807,1.807,0,0,1-1.339-.355c-.332-.332-.447-.824-.458-2.255h1.74c.023.79.058.971.129,1.042s.184.1.527.1h1.614c.332,0,.47-.023.549-.091.081-.091.1-.309.1-.79,0-.4-.011-.549-.115-.653-.065-.069-.228-.1-.549-.137l-2.347-.252a1.792,1.792,0,0,1-1.134-.412c-.309-.32-.412-.789-.412-1.878a2.613,2.613,0,0,1,.518-1.958,1.648,1.648,0,0,1,1.225-.378h2.679a1.782,1.782,0,0,1,1.329.343c.343.344.446.777.469,2.187H1814c-.023-.722-.058-.893-.137-.971s-.172-.091-.493-.091h-1.489c-.3,0-.412.011-.481.08s-.1.3-.1.733c0,.4.011.55.115.642.065.08.194.091.549.137l2.347.252a1.7,1.7,0,0,1,1.11.4c.309.31.435.8.435,1.889A2.781,2.781,0,0,1,1815.331,609.687Z" transform="translate(-1692.244 -563.068)" fill="#13a538"/>
    <path id="Path_6292" data-name="Path 6292" d="M1933.144,608.676v-1.535h1.6v2.943h-6.7v-1.3l4.408-5.313h-2.622v1.477h-1.6V602.07h6.548v1.295l-4.408,5.313Z" transform="translate(-1803.211 -563.087)" fill="#13a538"/>
    <path id="Path_6293" data-name="Path 6293" d="M2043.38,609.589v-1.443h.777l1.969-6.033c.149-.447.31-.572.756-.572h1.3c.447,0,.607.126.755.572l1.97,6.033h.766v1.443h-3.618V608.17h.916l-.309-1.054h-2.416l-.3,1.054h.916v1.419Zm3.238-3.836h1.661l-.756-2.611h-.149Z" transform="translate(-1911.073 -562.591)" fill="#13a538"/>
    <path id="Path_6294" data-name="Path 6294" d="M1377.331,821.987a1.652,1.652,0,0,1-1.248.378H1373.2a1.809,1.809,0,0,1-1.34-.355c-.332-.331-.446-.824-.458-2.255h1.741c.023.79.057.971.126,1.042s.183.1.526.1h1.615c.332,0,.469-.023.55-.092.08-.091.1-.308.1-.789,0-.4-.012-.549-.115-.653-.069-.069-.229-.1-.55-.137l-2.347-.253a1.79,1.79,0,0,1-1.133-.412c-.309-.324-.413-.79-.413-1.878a2.613,2.613,0,0,1,.518-1.957,1.643,1.643,0,0,1,1.225-.378h2.679a1.782,1.782,0,0,1,1.329.343c.343.344.446.777.469,2.187h-1.729c-.023-.721-.057-.892-.137-.971s-.172-.091-.492-.091h-1.489c-.3,0-.412.011-.48.08s-.1.3-.1.732c0,.4.012.55.115.642.069.08.194.091.549.138l2.348.251a1.693,1.693,0,0,1,1.111.4c.309.31.435.8.435,1.889A2.761,2.761,0,0,1,1377.331,821.987Z" transform="translate(-1282.603 -761.622)" fill="#13a538"/>
    <path id="Path_6295" data-name="Path 6295" d="M1495.145,820.956v-1.535h1.6v2.942h-6.7v-1.3l4.408-5.313h-2.622v1.477h-1.6V814.35h6.547v1.295l-4.408,5.309Z" transform="translate(-1393.571 -761.622)" fill="#13a538"/>
    <path id="Path_6296" data-name="Path 6296" d="M1612.458,818.93h-.789v2h.892v1.43h-3.641v-1.441h.962v-5.14h-.962V814.35h3.641v1.419h-.892v1.809h.824l1.659-1.82h-.824V814.35h3.538v1.431h-.768l-2.187,2.324,2.266,2.817h.777v1.443h-3.687v-1.419h.791Z" transform="translate(-1504.744 -761.622)" fill="#13a538"/>
    <path id="Path_6297" data-name="Path 6297" d="M1751.593,814.35c.767,0,1.065.1,1.339.378.436.424.641,1.165.641,3.626s-.205,3.2-.641,3.63c-.275.275-.572.377-1.339.377h-2.7c-.756,0-1.065-.1-1.34-.377-.436-.435-.641-1.18-.641-3.63s.205-3.205.641-3.626c.275-.275.583-.378,1.34-.378Zm-2.634,6.423c.08.08.172.1.527.1h1.522c.344,0,.447-.023.518-.1.1-.092.15-.388.15-2.416s-.047-2.324-.15-2.426c-.069-.069-.172-.092-.518-.092h-1.522c-.355,0-.447.023-.527.092-.091.1-.149.388-.149,2.426S1748.867,820.681,1748.959,820.773Z" transform="translate(-1633.799 -761.622)" fill="#13a538"/>
    <path id="Path_6298" data-name="Path 6298" d="M1868.342,819.239l-.95.252v-1.408l.95-.252v-2.05h-.962V814.35h3.766v1.431h-1.019v1.569l1.764-.47v1.409l-1.764.469v2.174h2.175v-1.452h1.6v2.885h-6.526v-1.443h.962Z" transform="translate(-1746.469 -761.622)" fill="#13a538"/>
    <path id="Path_6299" data-name="Path 6299" d="M1976.52,821.868v-1.443h.777l1.973-6.033c.148-.447.31-.572.755-.572h1.295c.447,0,.607.126.756.572l1.969,6.033h.767v1.443h-3.617v-1.419h.916l-.315-1.053h-2.416l-.3,1.053H1980v1.419Zm3.237-3.835h1.66l-.756-2.611h-.149Z" transform="translate(-1848.542 -761.126)" fill="#13a538"/>
    <path id="Path_6300" data-name="Path 6300" d="M1375.565,1033.216v-1.531h1.6v2.942h-6.7v-1.305l4.408-5.309h-2.622v1.471h-1.6v-2.874h6.549v1.3l-4.407,5.309Z" transform="translate(-1281.734 -960.138)" fill="#13a538"/>
    <path id="Path_6301" data-name="Path 6301" d="M1485.8,1034.129v-1.443h.777l1.97-6.033c.149-.447.308-.573.756-.573h1.3c.447,0,.607.13.756.573l1.969,6.033h.767v1.443h-3.614v-1.42h.916l-.309-1.053h-2.42l-.3,1.053h.916v1.42Zm3.237-3.835h1.66l-.756-2.611h-.148Z" transform="translate(-1389.596 -959.643)" fill="#13a538"/>
    <path id="Path_6302" data-name="Path 6302" d="M1614.8,1026.881l1.155,5.68h.13l.824-4.808H1616v-1.432h3.423v1.432h-.79l-1.283,6.033a.634.634,0,0,1-.744.583h-1.295c-.447,0-.653-.149-.733-.6l-1.053-5.071h-.115l-1.042,5.071c-.08.447-.287.6-.732.6h-1.307a.634.634,0,0,1-.744-.583l-1.283-6.033h-.789v-1.432h3.561v1.432h-.915l.824,4.808h.137l1.156-5.678c.081-.447.3-.583.733-.583h1.065C1614.506,1026.3,1614.723,1026.434,1614.8,1026.881Z" transform="translate(-1503.426 -959.848)" fill="#13a538"/>
    <path id="Path_6303" data-name="Path 6303" d="M1808.9,1026.61c.767,0,1.065.1,1.34.378.436.423.641,1.166.641,3.626s-.205,3.194-.641,3.63c-.275.274-.572.377-1.34.377h-2.7c-.755,0-1.064-.1-1.339-.377-.435-.436-.64-1.18-.64-3.63s.205-3.206.64-3.626c.275-.275.583-.378,1.339-.378Zm-2.633,6.423c.08.081.172.1.527.1h1.522c.344,0,.447-.022.518-.1.1-.091.149-.389.149-2.416s-.046-2.324-.149-2.427c-.069-.065-.172-.091-.518-.091H1806.8c-.355,0-.447.023-.527.091-.091.1-.149.389-.149,2.427S1806.177,1032.942,1806.269,1033.033Z" transform="translate(-1687.399 -960.138)" fill="#13a538"/>
    <path id="Path_6304" data-name="Path 6304" d="M1930.956,1027.206c.518.518.777,1.42.777,3.412s-.263,2.9-.777,3.412a2.55,2.55,0,0,1-2,.595h-4.442v-1.443h.962v-5.14h-.962v-1.432h4.442A2.509,2.509,0,0,1,1930.956,1027.206Zm-3.7,5.976h1.454c.481,0,.676-.034.848-.194.206-.206.275-.653.275-2.371s-.069-2.164-.275-2.37c-.172-.172-.367-.206-.848-.206h-1.454Z" transform="translate(-1799.9 -960.138)" fill="#13a538"/>
    <path id="Path_6305" data-name="Path 6305" d="M2061.683,1026.61c.768,0,1.065.1,1.34.378.435.423.641,1.166.641,3.626s-.207,3.194-.641,3.63c-.275.274-.572.377-1.34.377h-2.7c-.756,0-1.065-.1-1.34-.377-.435-.436-.641-1.18-.641-3.63s.206-3.206.641-3.626c.275-.275.583-.378,1.34-.378Zm-2.633,6.423c.08.081.172.1.527.1h1.522c.344,0,.447-.022.518-.1.1-.091.149-.389.149-2.416s-.046-2.324-.149-2.427c-.068-.065-.172-.091-.518-.091h-1.522c-.355,0-.447.023-.527.091-.092.1-.149.389-.149,2.427S2058.958,1032.942,2059.05,1033.033Z" transform="translate(-1923.812 -960.138)" fill="#13a538"/>
    <path id="Path_6306" data-name="Path 6306" d="M2180,1026.863l1.156,5.678h.129l.824-4.808h-.916V1026.3h3.423v1.432h-.79l-1.283,6.033a.634.634,0,0,1-.744.583h-1.295c-.446,0-.653-.149-.732-.6l-1.054-5.071h-.115l-1.042,5.071c-.08.447-.287.6-.733.6h-1.305a.634.634,0,0,1-.744-.583l-1.283-6.033h-.79V1026.3h3.561v1.432h-.916l.823,4.808h.137l1.156-5.678c.081-.447.3-.583.733-.583h1.063C2179.7,1026.279,2179.921,1026.416,2180,1026.863Z" transform="translate(-2032.03 -959.829)" fill="#13a538"/>
    <path id="Path_6307" data-name="Path 6307" d="M2350.29,1034.129v-1.443h.777l1.969-6.033c.149-.447.309-.573.756-.573h1.295c.447,0,.607.13.755.573l1.969,6.033h.767v1.443h-3.618v-1.42h.916l-.309-1.053h-2.416l-.3,1.053h.913v1.42Zm3.237-3.835h1.665l-.756-2.611h-.151Z" transform="translate(-2198.111 -959.643)" fill="#13a538"/>
    <path id="Path_6308" data-name="Path 6308" d="M1372.83,1238.715l1.58,6.847h.183l1.305-6.4h-1.1v-.767h2.863v.767h-.962l-1.512,6.938c-.056.275-.172.344-.492.344h-.527c-.324,0-.435-.08-.492-.355l-1.569-6.835h-.172l-1.554,6.835c-.069.275-.183.355-.493.355h-.555c-.31,0-.423-.069-.493-.344l-1.5-6.938h-.962v-.767h2.942v.767h-1.1l1.295,6.4h.182l1.581-6.847c.058-.275.183-.355.492-.355h.562C1372.645,1238.36,1372.77,1238.44,1372.83,1238.715Z" transform="translate(-1277.909 -1158.177)" fill="#13a538"/>
    <path id="Path_6309" data-name="Path 6309" d="M1607.651,1246.858c-.687,0-.962-.092-1.191-.324-.4-.389-.55-.971-.55-3.687s.149-3.3.55-3.687c.229-.229.5-.321,1.191-.321h2.45c.665,0,1,.092,1.214.31.366.366.458.847.492,2.187h-.87c-.023-1-.092-1.36-.263-1.535-.1-.1-.24-.16-.687-.16H1607.8c-.458,0-.583.046-.7.16-.172.184-.275.583-.275,3.043s.1,2.863.275,3.043c.115.115.241.16.7.16h2.187c.435,0,.572-.057.687-.172.172-.172.229-.492.263-1.648h.881c-.034,1.431-.125,1.923-.5,2.312a1.7,1.7,0,0,1-1.225.31Z" transform="translate(-1501.929 -1158.627)" fill="#13a538"/>
    <path id="Path_6310" data-name="Path 6310" d="M1726.47,1246.138h1.122v.767h-3.148v-.767h1.165v-3.023h-3.847v3.023h1.166v.767h-3.148v-.767h1.122v-6.481h-1.122v-.767h3.148v.767h-1.166v2.714h3.847v-2.714h-1.165v-.767h3.148v.767h-1.122Z" transform="translate(-1608.426 -1158.674)" fill="#13a538"/>
    <path id="Path_6311" data-name="Path 6311" d="M1857.46,1239.657v-.767h6.161v2.348h-.848v-1.581h-3.331v2.714h2.521v.744h-2.518v3.023h3.4v-1.729h.847v2.5h-6.229v-.767h1.123v-6.481Z" transform="translate(-1737.191 -1158.674)" fill="#13a538"/>
    <path id="Path_6312" data-name="Path 6312" d="M1975.862,1243.322l-1.11.32v-.756l1.11-.321v-2.908h-1.122v-.767h3.173v.767h-1.191v2.655l2.1-.618v.756l-2.1.618v3.068h3.138v-1.764h.847v2.53h-5.965v-.767h1.122Z" transform="translate(-1846.878 -1158.674)" fill="#13a538"/>
    <path id="Path_6313" data-name="Path 6313" d="M2085.476,1239.634v6.5h.95v.766h-2.9v-.766h1.122v-6.481h-1.122v-.767h2.519c.264,0,.324.046.389.309l2.109,6.881h.137l2.095-6.881c.068-.263.115-.309.388-.309h2.484v.767h-1.122v6.481h1.122v.766h-2.931v-.766h.951v-6.5h-.16l-2.221,6.961c-.08.264-.126.309-.378.309h-.675c-.252,0-.31-.045-.388-.309l-2.21-6.961Z" transform="translate(-1948.624 -1158.673)" fill="#13a538"/>
    <path id="Path_6314" data-name="Path 6314" d="M2261.146,1246.138v.767h-3.206v-.767h1.166v-6.481h-1.166v-.767h3.206v.767h-1.165v6.481Z" transform="translate(-2111.74 -1158.674)" fill="#13a538"/>
    <path id="Path_6315" data-name="Path 6315" d="M2325.511,1239.657v-.767h6.159v2.348h-.847v-1.581h-3.332v2.714h2.518v.744h-2.518v3.023h3.4v-1.729h.847v2.5h-6.228v-.767h1.122v-6.481Z" transform="translate(-2174.936 -1158.674)" fill="#13a538"/>
    <path id="Path_6316" data-name="Path 6316" d="M431.225,1245.411a2.144,2.144,0,0,1-.888.54l-1.56.63a.974.974,0,0,0-.389.241.726.726,0,0,0-.125.523v.175h2.125v-.971h1.162v2H427v-.987c0-.806.074-1.138.324-1.419a1.856,1.856,0,0,1,.789-.5l1.6-.63c.274-.108.348-.166.4-.232.058-.083.083-.158.083-.44,0-.259-.025-.4-.1-.473-.05-.051-.157-.075-.348-.075h-.9c-.232,0-.315.034-.366.091s-.1.2-.107.822h-1.254c0-1.112.108-1.452.357-1.7a1.369,1.369,0,0,1,.987-.265h1.743a1.227,1.227,0,0,1,.921.282,1.784,1.784,0,0,1,.349,1.344A1.515,1.515,0,0,1,431.225,1245.411Z" transform="translate(-399.352 -1162.273)" fill="#13a538"/>
    <path id="Path_6317" data-name="Path 6317" d="M516.993,1243.065c.332.332.49.88.49,2.59s-.157,2.258-.49,2.59a1.359,1.359,0,0,1-1.087.316h-1.637a1.339,1.339,0,0,1-1.079-.316c-.341-.332-.49-.888-.49-2.59s.15-2.257.49-2.59a1.343,1.343,0,0,1,1.079-.315H515.9A1.372,1.372,0,0,1,516.993,1243.065Zm-2.373,4.415h.936c.282,0,.357-.025.423-.091s.124-.291.124-1.735-.049-1.668-.124-1.742c-.065-.058-.142-.091-.423-.091h-.938c-.274,0-.357.034-.423.091-.065.074-.125.291-.125,1.742s.058,1.669.125,1.735.149.091.423.091Z" transform="translate(-479.503 -1162.283)" fill="#13a538"/>
    <path id="Path_6318" data-name="Path 6318" d="M605.77,1243.065c.332.332.49.88.49,2.59s-.157,2.258-.49,2.59a1.359,1.359,0,0,1-1.087.316h-1.635a1.339,1.339,0,0,1-1.079-.316c-.341-.332-.49-.888-.49-2.59s.149-2.257.49-2.59a1.343,1.343,0,0,1,1.079-.315h1.638A1.36,1.36,0,0,1,605.77,1243.065Zm-2.373,4.415h.938c.282,0,.357-.025.423-.091s.124-.291.124-1.735-.05-1.668-.124-1.742c-.065-.058-.142-.091-.423-.091H603.4c-.274,0-.357.034-.423.091-.065.074-.125.291-.125,1.742s.058,1.669.125,1.735S603.123,1247.48,603.4,1247.48Z" transform="translate(-562.535 -1162.283)" fill="#13a538"/>
    <path id="Path_6319" data-name="Path 6319" d="M692.06,1247.4v1.029h-3.485V1247.4h1.153v-3.636l-.954.324-.324-.971,1.369-.506H691v4.792Z" transform="translate(-643.874 -1162.152)" fill="#13a538"/>
    <path id="Path_6320" data-name="Path 6320" d="M158.7,719.008l-.4-1.722-2.245.527-.662-1.68,3.357-1.439,1.906.552.493-1.7-.707-.2.925-.856h3.256l2.1-2.1-1.251-1.251-1.586,1.586h-3.216L158.2,713l-5.087,2.181,1.854,4.7Z" transform="translate(-143.196 -663.215)" fill="#13a538"/>
    <path id="Path_6321" data-name="Path 6321" d="M229.9,741.276h-3.337l1.36-2.514V731.09l-2.516-2.516-1.251,1.251,2,2v6.492l-1.438,2.655h-2.684l1.2-2.21V734.4l-3.108-3.108,5.127-5.126-2.842-8.288-7.085-3.626-11.881,2.317-2.675-1.715-.949-.609h0l-.3-.194-9.842,1.942.342,1.736,9.144-1.8,1.329.853,2.59,1.662h0l4.9,3.142.955-1.489-3.343-2.144,9.466-1.848,5.9,3.023,2.253,6.569-5.5,5.5v7.118l-1.438,2.659h-5.147l.705-1.32h2.7v-3.3l-3.737-7.613V725.3h-1.77v3.85l.648,1.322h-4.079v1.771h4.951l2.219,4.521v1.123h-1.988l-1.813,3.393h-5.219V730.6l-1.865-4.325-1.624.7,1.723,3.989v10h-6.039l.7-1.32H199.8l-4.451-10.308V726.4h-1.769v1.683l-.482-.115-3.464-4.287-1.377,1.114,2.027,2.508-2.252-.533-2.057-2.953-5.35,1.378.441,1.713,4.161-1.072,1.74,2.5,6.7,1.587.5,1.165-4.326,4.327v2.181h-2.986v-3.831l2.659-3.019-1.952-.461-2.477,2.811v6.269h6.524v-3.215l3.311-3.314,2.181,5.05h-1.527l-1.813,3.393H177.29q.334.862.734,1.7h51.143Q229.563,742.141,229.9,741.276Zm-10.419-2.514v-5.607l1.978,1.979v3.18l-1.6,2.962h-1.736Z" transform="translate(-165.811 -667.816)" fill="#13a538"/>
    <path id="Path_6322" data-name="Path 6322" d="M221.22,510.58h6.612v9.381h1.77V508.81H219.45v12.623h1.77Z" transform="translate(-205.241 -475.865)" fill="#13a538"/>
    <path id="Path_6323" data-name="Path 6323" d="M792.609,510.589h6.612v10.873h1.77V508.82H790.84v11.15h1.769Z" transform="translate(-739.634 -475.874)" fill="#13a538"/>
    <path id="Path_6324" data-name="Path 6324" d="M503.91,439.57h6.612v13.979h1.77V437.8H502.14v15.749h1.77Z" transform="translate(-469.627 -409.453)" fill="#13a538"/>
    <path id="Path_6325" data-name="Path 6325" d="M74.05,63.142a32.988,32.988,0,1,0,65.976,0v-40.9H128.949V2.486l-9.363,9.363v5.6h-3.543a3.484,3.484,0,0,1-3.462-3.131l4.39-4.39L107.038,0,97.106,9.932l4.39,4.39a3.484,3.484,0,0,1-3.462,3.131H94.491v-5.6L85.128,2.486V22.247H74.05Zm53.129-45.835a2.693,2.693,0,0,1,0-5.1Zm-16.385-3.7v.366a5.255,5.255,0,0,0,5.249,5.249h5.309V12.581l5.827-5.824v3.609a4.479,4.479,0,0,0,0,8.783v3.1H107.874V12.108a3.336,3.336,0,0,0,.049-6.431V3.387l6.546,6.545ZM106.989,7.3A1.587,1.587,0,1,1,105.4,8.885,1.587,1.587,0,0,1,106.989,7.3ZM92.721,12.581v6.641H98.03a5.255,5.255,0,0,0,5.249-5.249v-.366L99.608,9.932l6.545-6.545v2.26a3.338,3.338,0,0,0-.049,6.461V22.247H86.9v-3.1a4.479,4.479,0,0,0,0-8.783V6.757ZM86.9,17.308v-5.1a2.693,2.693,0,0,1,0,5.1ZM75.82,24.017h62.437V63.142a31.219,31.219,0,1,1-62.437,0Z" transform="translate(-69.255)" fill="#13a538"/>
    <path id="Path_6326" data-name="Path 6326" d="M62.094,269.55v1.77H73.8v43.809a36.013,36.013,0,0,1-72.027,0V271.32h11.7v-1.77H.885L0,269.565v45.564a37.783,37.783,0,0,0,75.566,0V269.55Z" transform="translate(0 -252.097)" fill="#13a538"/>
    <path id="Path_6327" data-name="Path 6327" d="M45.171,98.265l2.542-2.542,2.541,2.542,1.251-1.251-2.541-2.542,2.541-2.541L50.254,90.68l-2.541,2.541L45.171,90.68,43.92,91.931l2.542,2.541L43.92,97.014Z" transform="translate(-41.076 -84.809)" fill="#13a538"/>
    <path id="Path_6328" data-name="Path 6328" d="M1005.431,98.265l2.542-2.542,2.541,2.542,1.251-1.251-2.541-2.542,2.541-2.541-1.251-1.251-2.541,2.541-2.542-2.541-1.251,1.251,2.542,2.541-2.542,2.542Z" transform="translate(-939.16 -84.809)" fill="#13a538"/>
    <path id="Path_6329" data-name="Path 6329" d="M785.59,1249.7h7.484c.511-.545,1-1.108,1.472-1.695H785.59Z" transform="translate(-734.724 -1167.203)" fill="#13a538"/>
    <path id="Path_6330" data-name="Path 6330" d="M785.59,1305.468h3.345c.708-.5,1.391-1.042,2.044-1.606v-.093H785.59Z" transform="translate(-734.724 -1219.352)" fill="#13a538"/>
    <path id="Path_6331" data-name="Path 6331" d="M244.639,1249.7h7.64V1248H243.16Q243.862,1248.88,244.639,1249.7Z" transform="translate(-227.416 -1167.193)" fill="#13a538"/>
    <path id="Path_6332" data-name="Path 6332" d="M300.78,1304.03q.906.773,1.878,1.468h3.511v-1.7H300.78Z" transform="translate(-281.305 -1219.38)" fill="#13a538"/>
  </g>
</svg>
